<?xml version="1.0" encoding="UTF-8"?>
<svg version="1.1" xmlns="http://www.w3.org/2000/svg" width="512" height="512">
<path d="M0 0 C2.10052024 1.94050688 4.17925573 3.90277572 6.25 5.875 C7.148396 6.73037354 7.148396 6.73037354 8.06494141 7.60302734 C16.95711736 16.13263199 24.95107735 24.95070671 32.25 34.875 C32.88929443 35.73109863 32.88929443 35.73109863 33.54150391 36.60449219 C40.05799189 45.34738527 45.83579021 54.41451241 51.25 63.875 C51.90613281 64.99777344 52.56226563 66.12054688 53.23828125 67.27734375 C72.66966806 101.89558599 89.51365799 154.06146063 81.5625 194.359375 C78.47720933 203.66666852 72.63225049 210.83304482 64.25 215.875 C57.29933955 219.21967871 50.47384709 219.99948716 42.79294205 220.00363445 C42.05963751 220.00538749 41.32633298 220.00714053 40.5708071 220.00894669 C38.1123103 220.01360055 35.65387279 220.01114276 33.19537354 220.00871277 C31.41540788 220.01058105 29.63544264 220.01288182 27.85547805 220.01557809 C22.96285572 220.0217004 18.07025047 220.02156199 13.17762518 220.02038372 C7.90141377 220.02017982 2.62520787 220.02569744 -2.65100098 220.03044128 C-12.98879464 220.03875085 -23.3265826 220.04149627 -33.66437933 220.04205366 C-42.06708877 220.04252869 -50.46979634 220.0445828 -58.87250519 220.04775429 C-82.69221289 220.05656183 -106.51191609 220.06117353 -130.33162543 220.06042381 C-131.61598787 220.06038386 -132.9003503 220.0603439 -134.22363281 220.06030273 C-135.50956228 220.06026185 -136.79549175 220.06022097 -138.12038878 220.06017885 C-158.96134073 220.05977239 -179.80227462 220.0693417 -200.64322135 220.0834411 C-222.03911567 220.09780179 -243.43500117 220.10471145 -264.83090043 220.10384732 C-276.84442549 220.10351524 -288.85793161 220.10626731 -300.87145233 220.11702538 C-311.10011504 220.12612634 -321.32875022 220.12830895 -331.55741522 220.12151595 C-336.77580168 220.11824867 -341.99413533 220.1182016 -347.21251678 220.1268692 C-351.9918586 220.13472589 -356.77110563 220.13331122 -361.55044511 220.12458507 C-363.27721599 220.12304825 -365.00399392 220.12487309 -366.73075649 220.13044515 C-380.51707401 220.17197697 -393.31536403 220.09781204 -403.9375 210.25 C-414.28624798 199.35122014 -414.25138899 187.17685867 -413.88623047 173.03320312 C-411.28264161 112.6747346 -386.21598598 56.41236733 -344.75 12.875 C-344.17975098 12.27606934 -343.60950195 11.67713867 -343.02197266 11.06005859 C-334.49236801 2.16788264 -325.67429329 -5.82607735 -315.75 -13.125 C-315.17926758 -13.55119629 -314.60853516 -13.97739258 -314.02050781 -14.41650391 C-305.27761473 -20.93299189 -296.21048759 -26.71079021 -286.75 -32.125 C-285.62722656 -32.78113281 -284.50445312 -33.43726562 -283.34765625 -34.11328125 C-258.00533942 -48.33804627 -229.41986762 -56.97598331 -200.75 -61.125 C-199.95271484 -61.24214355 -199.15542969 -61.35928711 -198.33398438 -61.47998047 C-126.89221899 -71.47173195 -53.34144633 -48.09242103 0 0 Z " fill="#E7ECEE" transform="translate(421.75,71.125)"/>
<path d="M0 0 C0.78687195 0.00310181 1.5737439 0.00620361 2.38446045 0.00939941 C52.40871237 0.24035281 101.04302505 17.33939199 139.0625 50.25 C139.866875 50.94351563 140.67125 51.63703125 141.5 52.3515625 C179.99967742 86.28557305 208.91862234 135.33390824 213.0625 187.25 C213.21695857 189.80996084 213.32409288 192.37338896 213.375 194.9375 C213.41238281 196.17886719 213.44976562 197.42023438 213.48828125 198.69921875 C212.90052669 203.60076822 211.25356654 206.44571087 207.42100525 209.60173035 C201.93761163 213.34328334 197.63566052 213.96571403 191.0859375 213.84375 C189.69261703 213.84381042 189.69261703 213.84381042 188.27114868 213.84387207 C186.31969384 213.83854006 184.36823785 213.82105742 182.41699219 213.79199219 C179.43878308 213.75001808 176.46283117 213.75094065 173.484375 213.7578125 C171.58071354 213.74732235 169.67706366 213.73438519 167.7734375 213.71875 C166.88892914 213.71854858 166.00442078 213.71834717 165.09310913 213.71813965 C160.01557611 213.62133721 156.45144913 213.07403351 152.0625 210.25 C147.06475863 205.02508856 145.08670333 200.58352015 144.1875 193.5 C140.11150377 165.72051802 128.95104708 140.90646997 111.0625 119.25 C110.62405762 118.71906738 110.18561523 118.18813477 109.73388672 117.64111328 C103.85516347 110.63595518 97.35506116 104.74655828 90.0625 99.25 C89.09957031 98.52167969 88.13664062 97.79335937 87.14453125 97.04296875 C64.50053506 80.65548862 40.58054138 72.81375622 13.0625 69.25 C13.18254395 70.42014648 13.30258789 71.59029297 13.42626953 72.79589844 C14.59409716 84.18608589 15.75652877 95.576815 16.91441345 106.96801758 C17.57006824 113.41706348 18.22750119 119.86592072 18.88818359 126.31445312 C19.51731346 132.45556316 20.14294161 138.59702017 20.76493454 144.73885727 C21.1019763 148.06585659 21.44106015 151.39261657 21.78302002 154.71911621 C22.16816773 158.46857839 22.54760673 162.21857895 22.92578125 165.96875 C23.04116745 167.07933777 23.15655365 168.18992554 23.2754364 169.33416748 C23.87485441 175.34277883 24.17743954 181.21152661 24.0625 187.25 C23.44826172 186.9413501 22.83402344 186.6327002 22.20117188 186.31469727 C20.00789912 185.22281798 17.79640947 184.1935243 15.5625 183.1875 C14.8096875 182.84589844 14.056875 182.50429687 13.28125 182.15234375 C5.87534374 179.14043469 -2.93054976 178.7479558 -10.41796875 181.5546875 C-13.3194466 183.03193201 -16.12368019 184.614269 -18.9375 186.25 C-19.9275 186.58 -20.9175 186.91 -21.9375 187.25 C-22.09574598 179.60810198 -21.47329683 172.14160626 -20.73046875 164.5390625 C-20.60282204 163.20416189 -20.47549461 161.86923071 -20.34846497 160.53427124 C-20.08121432 157.73515217 -19.81113586 154.9363259 -19.53881836 152.13769531 C-19.19846764 148.63912983 -18.86349191 145.1400786 -18.53046703 141.64080906 C-16.92594616 124.79647456 -15.17371462 107.97355288 -13.26350403 91.16075134 C-12.44601672 83.86175477 -11.6938596 76.5555439 -10.9375 69.25 C-29.00601704 70.9197802 -45.62709892 75.26208562 -61.9375 83.25 C-62.87239258 83.69617676 -62.87239258 83.69617676 -63.82617188 84.15136719 C-97.14784557 100.18807279 -121.62882035 129.31915785 -135.125 163.4375 C-138.8236495 174.28687188 -141.39835105 185.84839239 -143 197.1875 C-143.71137011 201.89864919 -144.85888742 204.61163968 -147.9375 208.25 C-148.411875 208.8275 -148.88625 209.405 -149.375 210 C-154.23119876 213.88495901 -159.6740407 213.57119994 -165.5859375 213.5859375 C-166.51669098 213.5925943 -167.44744446 213.5992511 -168.40640259 213.60610962 C-170.37150096 213.6162147 -172.33663349 213.6209273 -174.30175781 213.62060547 C-177.2955019 213.62497519 -180.28776682 213.66130786 -183.28125 213.69921875 C-185.19530749 213.70508819 -187.10937194 213.70905673 -189.0234375 213.7109375 C-189.91219574 213.72530853 -190.80095398 213.73967957 -191.71664429 213.75448608 C-197.64163515 213.71130092 -201.07302033 212.67936798 -205.9375 209.25 C-211.61760051 202.97199417 -211.36101328 197.61072325 -211.06933594 189.48876953 C-208.63336383 148.12235429 -189.03438107 106.16823609 -161.9375 75.25 C-160.88175781 74.02990234 -160.88175781 74.02990234 -159.8046875 72.78515625 C-149.72673093 61.35263562 -139.13889832 51.34871845 -126.9375 42.25 C-126.37836914 41.82477051 -125.81923828 41.39954102 -125.24316406 40.96142578 C-101.83473174 23.18987515 -74.40355569 11.19096288 -45.875 4.5 C-45.03791504 4.30116211 -44.20083008 4.10232422 -43.33837891 3.89746094 C-28.98926015 0.70755198 -14.64697072 -0.10350116 0 0 Z " fill="#E7A328" transform="translate(254.9375,42.75)"/>
<path d="M0 0 C5.16430554 4.4265476 7.35639178 8.79785183 9.3984375 15.18359375 C14.61975058 31.39533733 14.61975058 31.39533733 25.73022461 43.47265625 C34.97291279 47.24157657 45.58141588 47.78357604 55.47271729 47.7755127 C61.45594684 47.84550796 65.61661428 49.426019 70.09146118 53.62657166 C73.96976367 57.94394965 75.4099881 61.92787145 75.9375 67.625 C74.87852447 79.90911616 65.92335796 87.57069019 57.05078125 95.23828125 C48.15341365 102.33514956 48.15341365 102.33514956 43.87890625 112.26171875 C44.3194764 115.74812035 44.97131615 118.82614799 46.01269531 122.16259766 C47.0902275 125.83600283 47.64194782 129.60052509 48.25 133.375 C48.37721436 134.12894043 48.50442871 134.88288086 48.63549805 135.65966797 C51.60871352 153.82209357 51.60871352 153.82209357 47.1875 161.375 C42.94543261 166.74761837 37.82693308 168.78426428 31.1875 169.75 C21.82253239 168.43561858 13.45714387 163.1548578 5.3125 158.625 C3.21362094 157.46364583 1.1134081 156.30469814 -0.98828125 155.1484375 C-1.90391846 154.63974121 -2.81955566 154.13104492 -3.76293945 153.60693359 C-4.62491943 153.15914551 -5.48689941 152.71135742 -6.375 152.25 C-7.20451172 151.80922119 -8.03402344 151.36844238 -8.88867188 150.91430664 C-11.40060731 149.99266417 -11.40060731 149.99266417 -13.89526367 151.13696289 C-15.20587769 151.9218811 -15.20587769 151.9218811 -16.54296875 152.72265625 C-17.51943359 153.29306641 -18.49589844 153.86347656 -19.50195312 154.45117188 C-20.51193359 155.06541016 -21.52191406 155.67964844 -22.5625 156.3125 C-24.55459531 157.49324094 -26.54807477 158.6716499 -28.54296875 159.84765625 C-29.51540527 160.42273926 -30.4878418 160.99782227 -31.48974609 161.59033203 C-48.07699019 171.13171681 -48.07699019 171.13171681 -57.6171875 168.671875 C-62.92638056 166.7055072 -66.42739739 164.03748976 -69.24023438 159.078125 C-73.17592689 149.26937671 -69.69262679 136.67660867 -67.8125 126.6875 C-67.32108474 124.06290302 -66.84304 121.43686904 -66.37109375 118.80859375 C-66.15638428 117.66704834 -65.9416748 116.52550293 -65.72045898 115.34936523 C-65.36521647 112.16222482 -65.27979765 110.25689963 -66.375 107.25 C-68.05030664 105.2703082 -69.67051957 103.55745429 -71.546875 101.79296875 C-72.06630676 101.2863118 -72.58573853 100.77965485 -73.12091064 100.25764465 C-74.77966223 98.64101284 -76.45082358 97.03814189 -78.125 95.4375 C-95.81934317 78.47353885 -95.81934317 78.47353885 -96.625 68 C-96.20158776 61.64881642 -94.61081111 57.06958756 -90.125 52.4375 C-82.8722954 46.6925261 -73.18590641 46.0787324 -64.25390625 46.48828125 C-56.9952507 46.52098031 -50.58135769 46.35273723 -44.375 42.25 C-37.13146339 33.71593063 -32.98966719 21.88619026 -29.24868774 11.46838379 C-26.74065862 4.88135324 -22.82613432 1.0139131 -16.5625 -2.1875 C-10.61509363 -3.2370423 -5.38304752 -2.79120982 0 0 Z " fill="#F5BE31" transform="translate(266.375,334.75)"/>
<path d="M0 0 C4.99365973 3.21813627 7.12740507 6.99738323 8.80859375 12.59375 C11.25280443 19.59996833 13.62880621 26.35105322 18.8125 31.8125 C26.93936997 35.72383422 35.93746311 35.87291563 44.79907227 36.42456055 C49.8353787 37.07291921 52.30489169 39.09694571 55.625 42.875 C58.06985599 46.86397556 58.6462316 51.25374741 57.8125 55.8125 C55.69639426 60.69491157 53.22851519 63.49210068 49.16015625 66.9140625 C39.63498452 74.34714051 39.63498452 74.34714051 34.20849609 84.64599609 C34.19046403 90.21600623 35.46474865 95.38685264 37.14355469 100.67041016 C39.13305121 107.0411556 39.93332042 113.74499149 37.625 120.0625 C34.99811967 124.04811154 32.34308408 126.30230531 27.8125 127.8125 C21.81660136 128.35293423 18.23329461 126.97200152 13.125 124.1875 C11.13474095 123.14256318 9.14438243 122.10066288 7.14086914 121.08129883 C4.8125 119.8125 4.8125 119.8125 2.06030273 117.98706055 C-3.75090939 114.36263653 -3.75090939 114.36263653 -10.34692383 114.53710938 C-13.66003154 116.1092406 -16.67016986 117.88534113 -19.75 119.875 C-21.85522909 121.13711859 -23.96068695 122.3988557 -26.06640625 123.66015625 C-26.9797876 124.23773682 -27.89316895 124.81531738 -28.83422852 125.41040039 C-33.0294278 127.9099366 -36.36521519 128.13943456 -41.1875 127.8125 C-45.86920268 126.06833626 -48.39999191 123.94214161 -51.1875 119.8125 C-54.02492508 111.30022476 -51.10375546 101.84587899 -49.52148438 93.3046875 C-49.33779297 92.27085937 -49.15410156 91.23703125 -48.96484375 90.171875 C-48.79202881 89.23827148 -48.61921387 88.30466797 -48.44116211 87.34277344 C-48.1770408 84.70816976 -48.17137963 83.24762678 -49.1875 80.8125 C-51.01462989 78.62041892 -51.01462989 78.62041892 -53.3359375 76.4765625 C-54.17640625 75.65929687 -55.016875 74.84203125 -55.8828125 74 C-57.66128769 72.2993007 -59.439932 70.59877824 -61.21875 68.8984375 C-62.06179688 68.07859375 -62.90484375 67.25875 -63.7734375 66.4140625 C-64.5473584 65.67494629 -65.3212793 64.93583008 -66.11865234 64.17431641 C-70.01052401 59.73131824 -71.72776878 55.57775405 -71.47265625 49.765625 C-70.83846848 45.42187317 -68.9906533 42.6156533 -65.9375 39.5625 C-60.95831662 36.39392876 -56.50414369 35.73774401 -50.7109375 35.69140625 C-44.14899313 35.46232817 -37.99152543 35.12679866 -32.1875 31.8125 C-27.10554443 25.69677911 -24.53637749 18.43207331 -21.7734375 11.06640625 C-19.73711989 5.65161704 -18.1547266 2.79964038 -13.1875 -0.1875 C-8.48227445 -1.75590852 -4.66101184 -1.73645539 0 0 Z " fill="#F5BE31" transform="translate(446.1875,376.1875)"/>
<path d="M0 0 C4.99365973 3.21813627 7.12740507 6.99738323 8.80859375 12.59375 C11.25280443 19.59996833 13.62880621 26.35105322 18.8125 31.8125 C26.93936997 35.72383422 35.93746311 35.87291563 44.79907227 36.42456055 C49.8353787 37.07291921 52.30489169 39.09694571 55.625 42.875 C58.06985599 46.86397556 58.6462316 51.25374741 57.8125 55.8125 C55.69639426 60.69491157 53.22851519 63.49210068 49.16015625 66.9140625 C39.63498452 74.34714051 39.63498452 74.34714051 34.20849609 84.64599609 C34.19046403 90.21600623 35.46474865 95.38685264 37.14355469 100.67041016 C39.13305121 107.0411556 39.93332042 113.74499149 37.625 120.0625 C34.99811967 124.04811154 32.34308408 126.30230531 27.8125 127.8125 C21.81660136 128.35293423 18.23329461 126.97200152 13.125 124.1875 C11.13474095 123.14256318 9.14438243 122.10066288 7.14086914 121.08129883 C4.8125 119.8125 4.8125 119.8125 2.06030273 117.98706055 C-3.75090939 114.36263653 -3.75090939 114.36263653 -10.34692383 114.53710938 C-13.66003154 116.1092406 -16.67016986 117.88534113 -19.75 119.875 C-21.85522909 121.13711859 -23.96068695 122.3988557 -26.06640625 123.66015625 C-26.9797876 124.23773682 -27.89316895 124.81531738 -28.83422852 125.41040039 C-33.03008191 127.91032632 -36.36103421 128.21470548 -41.1875 127.8125 C-45.43839005 126.13130783 -48.86195938 123.81759774 -51.1875 119.8125 C-54.02492508 111.30022476 -51.10375546 101.84587899 -49.52148438 93.3046875 C-49.33779297 92.27085937 -49.15410156 91.23703125 -48.96484375 90.171875 C-48.79202881 89.23827148 -48.61921387 88.30466797 -48.44116211 87.34277344 C-48.1770408 84.70816976 -48.17137963 83.24762678 -49.1875 80.8125 C-51.01462989 78.62041892 -51.01462989 78.62041892 -53.3359375 76.4765625 C-54.17640625 75.65929687 -55.016875 74.84203125 -55.8828125 74 C-57.66128769 72.2993007 -59.439932 70.59877824 -61.21875 68.8984375 C-62.06179687 68.07859375 -62.90484375 67.25875 -63.7734375 66.4140625 C-64.5473584 65.67494629 -65.3212793 64.93583008 -66.11865234 64.17431641 C-70.01052401 59.73131824 -71.72776878 55.57775405 -71.47265625 49.765625 C-70.83846848 45.42187317 -68.9906533 42.6156533 -65.9375 39.5625 C-60.00904053 35.78984398 -52.89813548 35.17700115 -46.0625 34.1875 C-45.18207031 34.0534375 -44.30164063 33.919375 -43.39453125 33.78125 C-39.29781428 33.17570209 -35.3419428 32.62287813 -31.1875 32.8125 C-31.02096924 32.27592773 -30.85443848 31.73935547 -30.68286133 31.18652344 C-28.79059041 25.28248543 -26.49488519 19.67845903 -23.875 14.0625 C-23.32682617 12.82693359 -23.32682617 12.82693359 -22.76757812 11.56640625 C-20.31013549 6.2950008 -18.00623554 3.11603259 -13.1875 -0.1875 C-8.48227445 -1.75590852 -4.66101184 -1.73645539 0 0 Z " fill="#F5BE31" transform="translate(79.1875,376.1875)"/>
<path d="M0 0 C2.04119788 1.61594832 4.04072937 3.2856382 6 5 C6 5.66 6 6.32 6 7 C6.598125 7.268125 7.19625 7.53625 7.8125 7.8125 C9.99847854 8.99917406 11.41332594 10.09599113 13 12 C13 12.66 13 13.32 13 14 C13.5775 14.2475 14.155 14.495 14.75 14.75 C17.32939979 16.18299988 19.06121592 17.78424676 21 20 C21 20.66 21 21.32 21 22 C21.598125 22.268125 22.19625 22.53625 22.8125 22.8125 C24.99847854 23.99917406 26.41332594 25.09599113 28 27 C28 27.66 28 28.32 28 29 C28.5775 29.2475 29.155 29.495 29.75 29.75 C32.32939979 31.18299988 34.06121592 32.78424676 36 35 C36 35.66 36 36.32 36 37 C36.5775 37.2475 37.155 37.495 37.75 37.75 C40.32939979 39.18299988 42.06121592 40.78424676 44 43 C44 43.66 44 44.32 44 45 C45.32 45.66 46.64 46.32 48 47 C46.41662549 50.67446149 44.1227918 53.31205938 41.5 56.3125 C22.36138644 78.83098572 11.08799444 105.73840756 6.9375 134.9375 C6.22612989 139.64864919 5.07861258 142.36163968 2 146 C1.525625 146.5775 1.05125 147.155 0.5625 147.75 C-4.29369876 151.63495901 -9.7365407 151.32119994 -15.6484375 151.3359375 C-16.57919098 151.3425943 -17.50994446 151.3492511 -18.46890259 151.35610962 C-20.43400096 151.3662147 -22.39913349 151.3709273 -24.36425781 151.37060547 C-27.3580019 151.37497519 -30.35026682 151.41130786 -33.34375 151.44921875 C-35.25780749 151.45508819 -37.17187194 151.45905673 -39.0859375 151.4609375 C-39.97469574 151.47530853 -40.86345398 151.48967957 -41.77914429 151.50448608 C-47.70413515 151.46130092 -51.13552033 150.42936798 -56 147 C-61.68010051 140.72199417 -61.42351328 135.36072325 -61.13183594 127.23876953 C-58.34286496 79.87791048 -33.48838345 32.85652716 0 0 Z " fill="#DD5252" transform="translate(105,105)"/>
<path d="M0 0 C25.1989793 12.21337886 43.60970554 55.91286269 52.50634766 80.64331055 C58.1079218 96.98276763 61.96895361 114.38361055 62.3125 131.6875 C62.36857422 133.54955078 62.36857422 133.54955078 62.42578125 135.44921875 C61.83802669 140.35076822 60.19106654 143.19571087 56.35850525 146.35173035 C50.87511163 150.09328334 46.57316052 150.71571403 40.0234375 150.59375 C38.63011703 150.59381042 38.63011703 150.59381042 37.20864868 150.59387207 C35.25719384 150.58854006 33.30573785 150.57105742 31.35449219 150.54199219 C28.37628308 150.50001808 25.40033117 150.50094065 22.421875 150.5078125 C20.51821354 150.49732235 18.61456366 150.48438519 16.7109375 150.46875 C15.82642914 150.46854858 14.94192078 150.46834717 14.03060913 150.46813965 C8.95307611 150.37133721 5.38894913 149.82403351 1 147 C-3.99774137 141.77508856 -5.97579667 137.33352015 -6.875 130.25 C-11.50013796 98.72790594 -25.45010403 71.37893133 -47 48 C-42.12275563 42.1202495 -36.86113122 36.73119183 -31.4453125 31.34765625 C-30.54376434 30.44752304 -29.64221619 29.54738983 -28.71334839 28.61997986 C-26.33801783 26.24927177 -23.96054595 23.88075485 -21.58197021 21.51330566 C-19.14655283 19.08819272 -16.71403088 16.66017915 -14.28125 14.23242188 C-9.52347231 9.48562872 -4.7628462 4.74170719 0 0 Z " fill="#2CB580" transform="translate(406,106)"/>
<path d="M0 0 C55.07597177 -1.02249412 105.15207064 20.63553049 145.90625 56.95703125 C148 59 148 59 151 63 C135.49 78.51 119.98 94.02 104 110 C100.4127745 108.20638725 98.07781141 106.50844973 95.0625 103.9375 C70.20726442 83.43766143 43.7605277 73.11318439 12 69 C11.88406494 68.10692139 11.76812988 67.21384277 11.64868164 66.29370117 C11.21681201 62.97795247 10.78228259 59.66257492 10.34594727 56.34741211 C10.1577056 54.91298144 9.97052279 53.4784114 9.78442383 52.04370117 C9.51662518 49.98058041 9.24501287 47.91799212 8.97265625 45.85546875 C8.72914429 43.99378052 8.72914429 43.99378052 8.48071289 42.09448242 C8.08414599 38.97434939 8.08414599 38.97434939 7 36 C4.02496878 34.84164327 4.02496878 34.84164327 1 34 C0 33 0 33 -0.11352539 29.85717773 C-0.11336633 28.46597303 -0.10767506 27.07476239 -0.09765625 25.68359375 C-0.0962413 24.95253922 -0.09482635 24.22148468 -0.09336853 23.46827698 C-0.08775408 21.12464368 -0.07519922 18.78110461 -0.0625 16.4375 C-0.05748686 14.85221492 -0.05292363 13.26692834 -0.04882812 11.68164062 C-0.03777997 7.7877239 -0.02050572 3.89387795 0 0 Z " fill="#F4BF32" transform="translate(256,43)"/>
<path d="M0 0 C3.0926073 0.39360457 4.91992026 0.66586981 7.4375 2.4375 C10.06158206 6.3736231 10.27184624 10.15483535 10.8125 14.75 C10.9377002 15.77996094 11.06290039 16.80992188 11.19189453 17.87109375 C12.58277232 29.84988083 13.54938517 41.86841944 14.5604248 53.88391113 C16.13039034 72.51818851 18.00571124 91.11134583 19.99087524 109.70553589 C20.88113082 118.06023503 21.75835355 126.41618202 22.5859375 134.77734375 C22.71532211 136.03702721 22.71532211 136.03702721 22.84732056 137.32215881 C23.37159039 142.71968579 23.51158114 148.01428492 23.4375 153.4375 C22.82326172 153.1288501 22.20902344 152.8202002 21.57617188 152.50219727 C19.38289912 151.41031798 17.17140947 150.3810243 14.9375 149.375 C14.1846875 149.03339844 13.431875 148.69179687 12.65625 148.33984375 C5.25034374 145.32793469 -3.55554976 144.9354558 -11.04296875 147.7421875 C-13.9444466 149.21943201 -16.74868019 150.801769 -19.5625 152.4375 C-20.5525 152.7675 -21.5425 153.0975 -22.5625 153.4375 C-22.72074598 145.79560198 -22.09829683 138.32910626 -21.35546875 130.7265625 C-21.22782204 129.39166189 -21.10049461 128.05673071 -20.97346497 126.72177124 C-20.70621432 123.92265217 -20.43613586 121.1238259 -20.16381836 118.32519531 C-19.82346468 114.82659941 -19.48848407 111.32751795 -19.15546131 107.82821751 C-17.75009518 93.07484384 -16.24733236 78.33723789 -14.5803833 63.610672 C-13.51671557 54.17108929 -12.63751359 44.72496154 -11.83032227 35.26049805 C-11.43447139 30.65009873 -11.00274843 26.04391872 -10.5625 21.4375 C-10.5041095 20.7236615 -10.44571899 20.009823 -10.38555908 19.27435303 C-10.20634583 17.10100906 -9.99828666 14.93196808 -9.78515625 12.76171875 C-9.67051025 11.47740967 -9.55586426 10.19310059 -9.43774414 8.86987305 C-8.06229102 3.47587153 -5.57007626 0.68404445 0 0 Z " fill="#2F3C67" transform="translate(255.5625,76.5625)"/>
<path d="M0 0 C0.65613281 0.25394531 1.31226563 0.50789062 1.98828125 0.76953125 C8.11013657 3.52504484 10.8593384 9.35167837 14 15 C14.639375 16.093125 15.27875 17.18625 15.9375 18.3125 C18.7471086 28.06349456 17.66183168 38.03600317 13 47 C8.05219692 55.29446034 1.52314297 59.66328566 -7.25 63.375 C-18.73144846 65.28857474 -27.11335848 64.30386776 -37 58 C-37.61617187 57.61714844 -38.23234375 57.23429687 -38.8671875 56.83984375 C-45.22507924 52.24437278 -49.73521276 43.58872341 -51 36 C-52.06044989 25.66707977 -50.38191566 18.82148581 -45 10 C-44.443125 8.88625 -43.88625 7.7725 -43.3125 6.625 C-39.66299581 2.48231957 -34.94821653 0.33022396 -30 -2 C-29.19691406 -2.37898437 -28.39382812 -2.75796875 -27.56640625 -3.1484375 C-18.3001465 -6.22308685 -8.56896691 -3.98394057 0 0 Z " fill="#A0B4BA" transform="translate(273,226)"/>
</svg>
